<?xml version="1.0" encoding="utf-8"?>
<!-- Generator: Adobe Illustrator 27.2.0, SVG Export Plug-In . SVG Version: 6.00 Build 0)  -->
<svg version="1.1"
	 id="Layer_1" image-rendering="optimizeQuality" text-rendering="geometricPrecision" shape-rendering="geometricPrecision"
	 xmlns="http://www.w3.org/2000/svg" xmlns:xlink="http://www.w3.org/1999/xlink" x="0px" y="0px" viewBox="0 0 503 512.3"
	 style="enable-background:new 0 0 503 512.3;" xml:space="preserve">
<style type="text/css">
	.st0{fill:#FFFFFF;}
</style>
<path class="st0" d="M361.6,89c-11-7.1-14.2-21.8-7.1-32.8c7.1-11,21.8-14.2,32.8-7.2c16.8,10.8,32.3,23.6,46.1,38
	c13.8,14.5,25.8,30.6,35.8,47.9l0.8,1.5c34,59.8,40.9,127.8,24.4,189.4c-16.7,62.2-57,118-117.2,152.7
	c-60.2,34.7-128.7,41.8-190.8,25.2c-62.2-16.6-118-57-152.7-117.2l-0.8-1.4C9.2,343.3-1.3,297.5,0.1,252.7
	c1.5-46.9,16.2-92.7,42.4-131.9c7.3-10.9,22-13.8,32.9-6.5c10.9,7.3,13.8,22,6.5,32.9c-21.2,31.8-33.1,69-34.4,107
	c-1.2,36.4,7.3,73.5,26.6,107.4l0.7,1.1c28.2,48.8,73.4,81.5,123.9,95.1c50.4,13.5,106,7.8,154.8-20.3c48.8-28.2,81.5-73.4,95-123.9
	c13.4-50.1,7.9-105.2-19.7-153.7l-0.7-1.1c-8.3-14.4-18.1-27.5-29.1-39C387.8,108,375.2,97.7,361.6,89L361.6,89z M241.8,5.6
	c19.8-11.4,45.2-4.7,56.6,15.2c11.4,19.8,4.6,45.2-15.2,56.6C263.4,88.8,238,82,226.6,62.2C215.1,42.4,221.9,17,241.8,5.6z
	 M106.4,34.2l104.6,250c12.9,22.4,41.5,30,63.9,17.1c22.4-12.9,30-41.5,17.1-63.9l-159.9-218C120.2,5.8,99.2,19.5,106.4,34.2z"/>
</svg>
