<?xml version="1.0" encoding="utf-8"?>
<!-- Generator: Adobe Illustrator 27.2.0, SVG Export Plug-In . SVG Version: 6.00 Build 0)  -->
<svg version="1.1" id="Layer_1" xmlns="http://www.w3.org/2000/svg" xmlns:xlink="http://www.w3.org/1999/xlink" x="0px" y="0px"
	 viewBox="0 0 100 125" style="enable-background:new 0 0 100 125;" xml:space="preserve">
<path d="M47.5,22.5c0-4.1,3.4-7.5,7.5-7.5s7.5-3.4,7.5-7.5V5h-5v2.5c0,1.4-1.1,2.5-2.5,2.5c-6.9,0-12.5,5.6-12.5,12.5V30h5V22.5z"/>
<path d="M52.5,27.5V30h5v-2.5c0-1.4,1.1-2.5,2.5-2.5c6.9,0,12.5-5.6,12.5-12.5V5h-5v7.5c0,4.1-3.4,7.5-7.5,7.5S52.5,23.4,52.5,27.5z
	"/>
<path d="M85,42.5c-2.9,0-5.6,1.3-7.5,3.4V35h-55v17.6c0,12.8,2.6,23.6,7.6,34.9H15l2.5,7.5h65l2.5-7.5H69.9
	c2.6-5.9,4.6-11.6,5.9-17.6c5.7-0.5,10.9-3,15-7.1c2.8-2.8,4.3-6.4,4.3-10.3C95,47,90.5,42.5,85,42.5z M70,52.6
	c-2.7,17.2-1.7,14.7-7.2,14.7H37.2c-8.1,0.1-4.7-4.8-7.2-14.7V42.5h40V52.6z M87.2,59.3c-2.9,2.9-6.6,4.8-10.5,5.4
	c0.5-3.5,0.8-7,0.8-10.8c1.3-0.8,2.3-1.9,2.9-3.4c0.8-1.9,2.6-3.1,4.6-3.1c2.8,0,5,2.2,5,5C90,55.1,89,57.5,87.2,59.3z"/>
</svg>
