<?xml version="1.0" encoding="UTF-8"?>
<svg id="Layer_2" data-name="Layer 2" xmlns="http://www.w3.org/2000/svg" viewBox="0 0 556.88 100.05">
  <defs>
    <style>
      .cls-1 {
        fill: #00163b;
      }

      .cls-2 {
        fill: #fbb040;
      }
    </style>
  </defs>
  <path class="cls-2" d="m162.89,36.23h-3.94c-2.42-3.94-6.8-6.42-11.44-6.42-7.37,0-13.16,5.97-13.16,13.35s5.98,13.09,13.48,13.09c4.77,0,9.47-2.67,11.44-7.12h4.7c-2.48,6.93-9.22,11.31-16.53,11.31-9.47,0-17.29-7.88-17.29-17.23,0-4.77,1.84-9.15,4.89-12.27,3.18-3.24,7.37-5.34,12.2-5.34s8.64,1.91,11.7,5.34v-4.77h3.94v10.04Z"/>
  <path class="cls-2" d="m181,33.62c2.92-5.21,7.82-8.01,13.79-8.01,5.34,0,11.19,2.42,14.37,8.01,1.27,2.22,2.73,5.21,2.73,9.41,0,9.6-7.56,17.42-17.1,17.42-5.66,0-11.12-2.92-13.79-7.95v15.51h5.59v3.94h-15.38v-3.94h5.59V30.12h-5.59v-3.94h9.79v7.44Zm26.7,9.41c0-8.26-6.23-13.86-13.16-13.48-7.25.38-13.6,5.21-13.6,13.41,0,7.44,5.91,13.54,13.35,13.54s13.41-6.1,13.41-13.48Z"/>
  <path class="cls-2" d="m228.35,32.41c2.22-4.2,6.23-6.8,11.06-6.8,4,0,7.37,1.65,9.98,4.7,2.92,3.43,3.11,7.18,3.11,11.44v13.86h5.59v3.94h-15.38v-3.94h5.6v-12.14c0-3.11.19-6.29-1.46-9.02-1.72-2.99-4.96-4.77-8.33-4.77-2.92,0-5.66,1.14-7.56,3.3-2.54,2.92-2.6,5.72-2.6,9.34v13.29h5.59v3.94h-15.38v-3.94h5.59V18.11h-5.59v-3.94h9.79v18.24Z"/>
  <path class="cls-1" d="m276.03,33.62c2.73-4.96,7.56-8.01,13.21-8.01,9.72,0,17.47,7.75,17.47,17.48,0,3.62-1.27,7.06-2.8,9.54-2.35,3.88-8.01,7.82-14.17,7.82-5.71,0-10.85-2.8-13.71-7.82v6.93h-9.79v-3.94h5.59V18.11h-5.59v-3.94h9.79v19.45Zm26.49,9.28c0-7.25-5.91-13.09-13.21-13.09s-13.46,5.72-13.46,13.28,6.1,13.16,13.52,13.16,13.15-6.04,13.15-13.35Z"/>
  <path class="cls-1" d="m342.04,53.96c-2.16,4.07-6.36,6.48-11.12,6.48s-9.34-3.12-11.38-6.48c-1.08-1.78-1.71-4.26-1.71-8.2v-15.64h-5.59v-3.94h9.79v17.99c0,3.11.06,6.1,2.1,8.77,1.97,2.61,4.7,3.81,8.01,3.56,3.3-.25,5.85-1.65,7.5-3.62,2.29-2.73,2.42-5.15,2.42-8.58v-14.17h-5.59v-3.94h9.79v29.43h5.66v3.94h-9.85v-5.59Z"/>
  <path class="cls-1" d="m377.7,34.64c-.06-1.71-.89-3.11-2.16-4.07-1.27-.95-2.92-1.53-4.7-1.53-3.37,0-6.55,2.03-6.55,5.66,0,4.2,4,5.21,7.37,5.91,2.61.51,5.28,1.08,7.57,2.48,2.67,1.53,4.13,4.26,4.13,7.31,0,2.16-.7,3.69-1.46,5.15-1.59,3.05-5.85,4.9-9.73,4.9s-7.24-1.46-9.28-4.9v4h-3.43v-9.53h3.43c.38,4.07,4,7.06,8.52,7.06,3.69,0,7.25-2.48,7.25-6.36,0-4.58-3.94-5.4-7.63-6.17-2.6-.57-5.21-1.08-7.5-2.48-2.48-1.59-3.94-4.13-3.94-7.06,0-2.29.45-4.07,1.71-5.72,1.97-2.54,5.72-3.69,8.84-3.69s5.91,1.08,7.56,3.69v-3.11h3.43v8.45h-3.43Z"/>
  <path class="cls-1" d="m400.71,55.61h5.59v3.94h-15.51v-3.94h5.72v-25.49h-5.59v-3.94h9.79v29.43Zm0-34.9h-4.2v-6.55h4.2v6.55Z"/>
  <path class="cls-1" d="m422.51,32.03c2.1-4.13,6.61-6.42,11.19-6.42,3.75,0,9.34,2.03,11.51,6.42.82,1.65,1.84,4.64,1.84,8.71v14.87h5.59v3.94h-15.38v-3.94h5.59v-13.35c0-2.99-.06-5.85-1.59-8.45-1.78-3.11-5.53-4.07-8.71-4.07-2.92,0-5.91,1.27-7.82,3.5-2.16,2.54-2.23,5.4-2.23,8.52v13.86h5.6v3.94h-15.38v-3.94h5.59v-25.49h-5.59v-3.94h9.79v5.85Z"/>
  <path class="cls-1" d="m491.04,50.21c-2.79,6.23-9.03,10.23-15.89,10.23-9.6,0-17.42-7.69-17.42-17.23s7.5-17.61,17.16-17.61,17.54,7.69,17.54,17.54v1.27h-30.51c.38,6.86,6.23,12.27,13.09,12.27,4.83,0,9.15-2.29,11.57-6.48h4.45Zm-2.54-9.22c-.95-6.8-6.87-11.57-13.67-11.57-6.42,0-12.14,5.28-12.9,11.57h26.57Z"/>
  <path class="cls-1" d="m519.13,34.64c-.06-1.71-.89-3.11-2.16-4.07-1.27-.95-2.92-1.53-4.7-1.53-3.37,0-6.55,2.03-6.55,5.66,0,4.2,4.01,5.21,7.37,5.91,2.61.51,5.28,1.08,7.57,2.48,2.67,1.53,4.13,4.26,4.13,7.31,0,2.16-.7,3.69-1.46,5.15-1.59,3.05-5.85,4.9-9.73,4.9s-7.24-1.46-9.28-4.9v4h-3.43v-9.53h3.43c.38,4.07,4,7.06,8.52,7.06,3.69,0,7.25-2.48,7.25-6.36,0-4.58-3.94-5.4-7.63-6.17-2.61-.57-5.21-1.08-7.5-2.48-2.48-1.59-3.94-4.13-3.94-7.06,0-2.29.44-4.07,1.71-5.72,1.97-2.54,5.72-3.69,8.84-3.69s5.91,1.08,7.56,3.69v-3.11h3.43v8.45h-3.43Z"/>
  <path class="cls-1" d="m551.23,34.64c-.06-1.71-.89-3.11-2.16-4.07-1.27-.95-2.92-1.53-4.7-1.53-3.37,0-6.55,2.03-6.55,5.66,0,4.2,4,5.21,7.37,5.91,2.61.51,5.28,1.08,7.57,2.48,2.67,1.53,4.13,4.26,4.13,7.31,0,2.16-.7,3.69-1.46,5.15-1.59,3.05-5.85,4.9-9.72,4.9s-7.25-1.46-9.28-4.9v4h-3.43v-9.53h3.43c.38,4.07,4,7.06,8.52,7.06,3.69,0,7.25-2.48,7.25-6.36,0-4.58-3.94-5.4-7.63-6.17-2.61-.57-5.21-1.08-7.5-2.48-2.48-1.59-3.94-4.13-3.94-7.06,0-2.29.45-4.07,1.72-5.72,1.97-2.54,5.72-3.69,8.84-3.69s5.91,1.08,7.56,3.69v-3.11h3.43v8.45h-3.43Z"/>
  <path class="cls-2" d="m100.05,100.05H0V0h100.05v100.05Zm-86.68-13.37h73.31V13.37H13.37v73.31Z"/>
</svg>