<svg class="logo logo--animated nav__logo" viewBox="0 0 230 50" fill="none"
    xmlns="http://www.w3.org/2000/svg">
    <path class="logo__square"
        d="M35.02 15.0098V44.9998H5V15.0098H35.01M40.01 10.0098H0V49.9998H40.02V10.0098H40.01Z"
        fill="#7D8B99" style="opacity: 1; transform: translate3d(0px, 0px, 0px);"></path>
    <path class="logo__square"
        d="M37.52 12.5098V42.4998H7.5V12.5098H37.51M42.51 7.50977H2.5V47.4998H42.52V7.50977H42.51Z"
        fill="#0628FD" style="opacity: 1; transform: translate3d(0px, 0px, 0px);"></path>
    <path class="logo__square"
        d="M40.02 10.0098V39.9998H10V10.0098H40.01M45.01 5.00977H5V44.9998H45.02V5.00977H45.01Z"
        fill="#00FCA8" style="opacity: 1; transform: translate3d(0px, 0px, 0px);"></path>
    <path class="logo__square"
        d="M42.5102 7.5V37.49H12.4902V7.5H42.5002M47.5002 2.5H7.49023V42.49H47.5102V2.5H47.5002Z"
        fill="white" style="opacity: 1; transform: translate3d(0px, 0px, 0px);"></path>
    <path d="M45.0102 5V34.99H14.9902V5H45.0002M50.0002 0H9.99023V39.99H50.0102V0H50.0002Z"
        fill="#FFAC00"></path>
    <path
        d="M107.36 24.63C107.45 23.09 108.41 21.9 110.05 21.9C111.92 21.9 112.71 23.12 112.71 24.69V32.85H116.59V24.03C116.59 20.96 114.9 18.48 111.25 18.48C109.88 18.48 108.3 18.94 107.37 20.02V12.25H103.49V32.85H107.37V24.63H107.36Z"
        fill="white"></path>
    <path
        d="M147.119 32.8496H150.039L149.889 18.8496H146.009V26.9896C146.009 28.6096 145.019 29.7496 143.289 29.7496C141.479 29.7496 140.659 28.4996 140.659 26.9296V18.8496H136.779V27.6996C136.779 30.7396 138.769 33.2196 142.239 33.2196C144.409 33.2196 146.209 31.3396 146.209 31.3396L147.119 32.8496Z"
        fill="white"></path>
    <path d="M170.14 18.8496H166.26V32.8496H170.14V18.8496Z" fill="white"></path>
    <path
        d="M177.159 24.8005C177.159 23.1805 178.149 21.9005 179.849 21.9005C181.719 21.9005 182.509 23.1205 182.509 24.6905V32.8505H186.389V24.0305C186.389 20.9605 184.749 18.4805 181.189 18.4805C179.639 18.4805 177.919 19.1305 177.039 20.5905L176.249 18.8505H173.279V32.8505H177.159V24.8005Z"
        fill="white"></path>
    <path
        d="M97.1595 25.85C97.1595 23.38 95.5794 21.92 93.5994 21.92C91.6194 21.92 90.0095 23.37 90.0095 25.85L89.9695 38.25H86.1895V18.85H89.1595L89.9494 20.56C90.5894 19.48 92.1995 18.54 94.3595 18.54C96.3295 18.54 100.989 19.66 100.989 25.73C100.989 31.8 97.3494 33.19 93.0194 33.19V29.81C93.0194 29.81 97.1595 30.15 97.1595 25.85Z"
        fill="white"></path>
    <path
        d="M123.51 12.26H119.68V32.86H122.65L123.44 31.15C124.2 32.34 125.72 33.2 127.7 33.2C131.79 33.2 134.48 30.04 134.48 25.8C134.48 21.56 132.14 18.6 128.07 18.49H126.22V21.87C126.22 21.87 130.6 21.42 130.6 25.82C130.6 28.31 128.98 29.8 127.04 29.8C125.1 29.8 123.56 28.44 123.46 26.05L123.51 12.25V12.26Z"
        fill="white"></path>
    <path d="M170.049 12.3896H166.369V15.9696H170.049V12.3896Z" fill="white"></path>
    <path
        d="M218.42 28.4697C218.41 30.7497 220.1 33.2797 224.43 33.2797C228.2 33.2797 230.01 30.9497 230.01 28.6697C230.01 26.6197 228.58 24.9397 225.75 24.3697L223.71 23.9397C222.92 23.7997 222.4 23.3697 222.4 22.6897C222.4 21.8897 223.22 21.2997 224.24 21.2997C225.76 21.2997 226.4 22.2197 226.57 23.0197H229.88C229.88 20.9097 228.29 18.4297 224.2 18.4297C221.1 18.4297 218.83 20.5097 218.83 23.0097C218.83 24.9697 220.09 26.5897 222.86 27.1897L224.76 27.6197C225.87 27.8497 226.31 28.3597 226.31 28.9897C226.31 29.7297 225.7 30.3797 224.41 30.3797C222.74 30.3797 221.9 29.5597 221.79 28.4697H218.44H218.42Z"
        fill="white"></path>
    <path
        d="M204.898 28.4697C204.888 30.7497 206.578 33.2797 210.908 33.2797C214.678 33.2797 216.488 30.9497 216.488 28.6697C216.488 26.6197 215.058 24.9397 212.228 24.3697L210.188 23.9397C209.398 23.7997 208.878 23.3697 208.878 22.6897C208.878 21.8897 209.698 21.2997 210.718 21.2997C212.238 21.2997 212.878 22.2197 213.048 23.0197H216.358C216.358 20.9097 214.768 18.4297 210.678 18.4297C207.578 18.4297 205.308 20.5097 205.308 23.0097C205.308 24.9697 206.568 26.5897 209.338 27.1897L211.238 27.6197C212.348 27.8497 212.788 28.3597 212.788 28.9897C212.788 29.7297 212.178 30.3797 210.888 30.3797C209.218 30.3797 208.378 29.5597 208.268 28.4697H204.918H204.898Z"
        fill="white"></path>
    <path
        d="M152.398 28.4697C152.388 30.7497 154.078 33.2797 158.408 33.2797C162.178 33.2797 163.988 30.9497 163.988 28.6697C163.988 26.6197 162.558 24.9397 159.728 24.3697L157.688 23.9397C156.898 23.7997 156.378 23.3697 156.378 22.6897C156.378 21.8897 157.198 21.2997 158.218 21.2997C159.738 21.2997 160.378 22.2197 160.548 23.0197H163.858C163.858 20.9097 162.268 18.4297 158.178 18.4297C155.078 18.4297 152.808 20.5097 152.808 23.0097C152.808 24.9697 154.068 26.5897 156.838 27.1897L158.738 27.6197C159.848 27.8497 160.288 28.3597 160.288 28.9897C160.288 29.7297 159.678 30.3797 158.388 30.3797C156.718 30.3797 155.878 29.5597 155.768 28.4697H152.418H152.398Z"
        fill="white"></path>
    <path
        d="M199.03 28.4697H202.8C202.42 31.0997 199.66 33.2797 196.24 33.2797C192.3 33.2797 188.82 30.5197 188.82 25.7997C188.82 21.3297 192.21 18.4297 195.89 18.4297C200.33 18.4297 202.99 21.1897 202.99 25.6797C202.99 26.2197 202.93 26.7897 202.93 26.8497H194.32L195.24 24.2597H199.16C199.16 23.0097 198.17 21.6097 195.9 21.6097C192.26 21.6097 192.41 25.6997 192.41 25.6997C192.41 28.4197 194.26 29.9897 195.91 30.0297C196.8 30.0497 198.11 30.0797 199.03 28.4797V28.4697Z"
        fill="white"></path>
    <path
        d="M79.1398 25.07C78.5898 26.98 76.8798 29.27 73.3698 29.27C70.0598 29.27 66.9898 26.86 66.9898 22.48C66.9898 17.81 70.2398 15.61 73.3098 15.61C76.3798 15.61 78.1398 17.37 78.7898 19.17H82.8498C82.8198 18.96 82.7898 18.77 82.7398 18.57C81.9298 15.23 78.9998 11.75 73.3098 11.75C67.6198 11.75 62.8398 15.93 62.8398 22.48C62.8398 29.03 67.6298 33.18 73.3698 33.18C78.1998 33.18 82.6798 29.68 83.2098 24.75H79.2198C79.1998 24.85 79.1698 24.96 79.1398 25.06V25.07Z"
        fill="white"></path>
</svg>